<mxfile host="Electron" modified="2024-09-18T19:09:25.286Z" agent="Mozilla/5.0 (Windows NT 10.0; Win64; x64) AppleWebKit/537.36 (KHTML, like Gecko) draw.io/24.2.5 Chrome/120.0.6099.109 Electron/28.1.0 Safari/537.36" etag="vEAhV8lHEacBS3J5fyyV" version="24.2.5" type="device" pages="3">
  <diagram id="q4zJl7TPP79QJNJHyamW" name="Страница — 3">
    <mxGraphModel dx="941" dy="644" grid="1" gridSize="10" guides="1" tooltips="1" connect="1" arrows="1" fold="1" page="1" pageScale="1" pageWidth="30000" pageHeight="30000" math="0" shadow="0">
      <root>
        <mxCell id="0" />
        <mxCell id="1" parent="0" />
        <mxCell id="MNyeOqqjsDTYBzTJqI73-1" value="Начало" style="rounded=1;whiteSpace=wrap;html=1;direction=east;perimeter=rectanglePerimeter;arcSize=50;" parent="1" vertex="1">
          <mxGeometry x="324" y="150" width="180" height="60" as="geometry" />
        </mxCell>
        <mxCell id="MNyeOqqjsDTYBzTJqI73-2" value="Сохранить регистры&lt;div&gt;&amp;nbsp;&lt;span style=&quot;background-color: initial;&quot;&gt;ES,&amp;nbsp;&lt;/span&gt;&lt;span style=&quot;background-color: initial;&quot;&gt;DS,&amp;nbsp;&lt;/span&gt;&lt;span style=&quot;background-color: initial;&quot;&gt;AX, DX&lt;/span&gt;&lt;/div&gt;" style="rounded=0;whiteSpace=wrap;html=1;" parent="1" vertex="1">
          <mxGeometry x="325.5" y="330" width="177" height="80" as="geometry" />
        </mxCell>
        <mxCell id="MNyeOqqjsDTYBzTJqI73-3" value="Вызвать подпрограмму sub_1" style="shape=process;whiteSpace=wrap;html=1;backgroundOutline=1;" parent="1" vertex="1">
          <mxGeometry x="326.25" y="230" width="175.5" height="80" as="geometry" />
        </mxCell>
        <mxCell id="MNyeOqqjsDTYBzTJqI73-4" value="Инкремент младшего слова счетчика тиков по адресу DS:006Ch" style="rounded=0;whiteSpace=wrap;html=1;" parent="1" vertex="1">
          <mxGeometry x="325.5" y="643" width="177" height="80" as="geometry" />
        </mxCell>
        <mxCell id="MNyeOqqjsDTYBzTJqI73-5" value="&lt;span style=&quot;color: rgb(0, 0, 0); font-family: Helvetica; font-size: 12px; font-style: normal; font-variant-ligatures: normal; font-variant-caps: normal; font-weight: 400; letter-spacing: normal; orphans: 2; text-align: center; text-indent: 0px; text-transform: none; widows: 2; word-spacing: 0px; -webkit-text-stroke-width: 0px; background-color: rgb(248, 249, 250); text-decoration-thickness: initial; text-decoration-style: initial; text-decoration-color: initial; float: none; display: inline !important;&quot;&gt;&lt;span style=&quot;background-color: rgb(251, 251, 251);&quot;&gt;Младшее слово&amp;nbsp;&lt;/span&gt;&lt;/span&gt;&lt;div&gt;&lt;span style=&quot;color: rgb(0, 0, 0); font-family: Helvetica; font-size: 12px; font-style: normal; font-variant-ligatures: normal; font-variant-caps: normal; font-weight: 400; letter-spacing: normal; orphans: 2; text-align: center; text-indent: 0px; text-transform: none; widows: 2; word-spacing: 0px; -webkit-text-stroke-width: 0px; background-color: rgb(248, 249, 250); text-decoration-thickness: initial; text-decoration-style: initial; text-decoration-color: initial; float: none; display: inline !important;&quot;&gt;&lt;span style=&quot;background-color: rgb(251, 251, 251);&quot;&gt;счетчика тиков&amp;nbsp;&lt;/span&gt;&lt;/span&gt;&lt;/div&gt;&lt;div&gt;&lt;span style=&quot;color: rgb(0, 0, 0); font-family: Helvetica; font-size: 12px; font-style: normal; font-variant-ligatures: normal; font-variant-caps: normal; font-weight: 400; letter-spacing: normal; orphans: 2; text-align: center; text-indent: 0px; text-transform: none; widows: 2; word-spacing: 0px; -webkit-text-stroke-width: 0px; background-color: rgb(248, 249, 250); text-decoration-thickness: initial; text-decoration-style: initial; text-decoration-color: initial; float: none; display: inline !important;&quot;&gt;&lt;span style=&quot;background-color: rgb(251, 251, 251);&quot;&gt;по адресу&amp;nbsp;&lt;/span&gt;&lt;/span&gt;&lt;/div&gt;&lt;div&gt;&lt;span style=&quot;background-color: rgb(248, 249, 250);&quot;&gt;DS:006Ch&lt;/span&gt;&lt;span style=&quot;background-color: rgb(248, 249, 250);&quot;&gt;&amp;nbsp;= 0?&lt;/span&gt;&lt;/div&gt;" style="rhombus;whiteSpace=wrap;html=1;" parent="1" vertex="1">
          <mxGeometry x="326.25" y="750" width="177" height="110" as="geometry" />
        </mxCell>
        <mxCell id="MNyeOqqjsDTYBzTJqI73-6" value="Инкремент старшего слова счетчика тиков" style="rounded=0;whiteSpace=wrap;html=1;" parent="1" vertex="1">
          <mxGeometry x="554" y="850" width="177" height="80" as="geometry" />
        </mxCell>
        <mxCell id="MNyeOqqjsDTYBzTJqI73-7" value="" style="endArrow=none;html=1;rounded=0;exitX=1;exitY=0.5;exitDx=0;exitDy=0;entryX=0.486;entryY=-0.012;entryDx=0;entryDy=0;entryPerimeter=0;" parent="1" source="MNyeOqqjsDTYBzTJqI73-5" target="MNyeOqqjsDTYBzTJqI73-6" edge="1">
          <mxGeometry width="50" height="50" relative="1" as="geometry">
            <mxPoint x="530" y="780" as="sourcePoint" />
            <mxPoint x="660" y="870" as="targetPoint" />
            <Array as="points">
              <mxPoint x="639" y="805" />
            </Array>
          </mxGeometry>
        </mxCell>
        <mxCell id="MNyeOqqjsDTYBzTJqI73-8" value="" style="endArrow=none;html=1;rounded=0;exitX=0;exitY=0.5;exitDx=0;exitDy=0;" parent="1" source="MNyeOqqjsDTYBzTJqI73-5" edge="1">
          <mxGeometry width="50" height="50" relative="1" as="geometry">
            <mxPoint x="400" y="810" as="sourcePoint" />
            <mxPoint x="190" y="970" as="targetPoint" />
            <Array as="points">
              <mxPoint x="190" y="805" />
            </Array>
          </mxGeometry>
        </mxCell>
        <mxCell id="MNyeOqqjsDTYBzTJqI73-9" value="" style="endArrow=none;html=1;rounded=0;" parent="1" source="MNyeOqqjsDTYBzTJqI73-6" edge="1">
          <mxGeometry width="50" height="50" relative="1" as="geometry">
            <mxPoint x="640" y="980" as="sourcePoint" />
            <mxPoint x="190" y="970" as="targetPoint" />
            <Array as="points">
              <mxPoint x="640" y="970" />
            </Array>
          </mxGeometry>
        </mxCell>
        <mxCell id="MNyeOqqjsDTYBzTJqI73-10" value="" style="endArrow=none;html=1;rounded=0;exitX=0.5;exitY=0;exitDx=0;exitDy=0;entryX=0.5;entryY=1;entryDx=0;entryDy=0;" parent="1" source="MNyeOqqjsDTYBzTJqI73-5" target="MNyeOqqjsDTYBzTJqI73-4" edge="1">
          <mxGeometry width="50" height="50" relative="1" as="geometry">
            <mxPoint x="500" y="610" as="sourcePoint" />
            <mxPoint x="550" y="560" as="targetPoint" />
          </mxGeometry>
        </mxCell>
        <mxCell id="MNyeOqqjsDTYBzTJqI73-11" value="&lt;font style=&quot;font-size: 18px;&quot;&gt;да&lt;/font&gt;" style="text;html=1;strokeColor=none;fillColor=none;align=center;verticalAlign=middle;whiteSpace=wrap;rounded=0;" parent="1" vertex="1">
          <mxGeometry x="530" y="770" width="60" height="30" as="geometry" />
        </mxCell>
        <mxCell id="MNyeOqqjsDTYBzTJqI73-12" value="" style="endArrow=none;html=1;rounded=0;fontSize=18;exitX=0.5;exitY=0;exitDx=0;exitDy=0;entryX=0.5;entryY=1;entryDx=0;entryDy=0;" parent="1" source="MNyeOqqjsDTYBzTJqI73-2" target="MNyeOqqjsDTYBzTJqI73-3" edge="1">
          <mxGeometry width="50" height="50" relative="1" as="geometry">
            <mxPoint x="410" y="410" as="sourcePoint" />
            <mxPoint x="460" y="360" as="targetPoint" />
          </mxGeometry>
        </mxCell>
        <mxCell id="MNyeOqqjsDTYBzTJqI73-13" value="" style="endArrow=none;html=1;rounded=0;fontSize=18;exitX=0.5;exitY=0;exitDx=0;exitDy=0;entryX=0.5;entryY=1;entryDx=0;entryDy=0;" parent="1" source="MNyeOqqjsDTYBzTJqI73-3" target="MNyeOqqjsDTYBzTJqI73-1" edge="1">
          <mxGeometry width="50" height="50" relative="1" as="geometry">
            <mxPoint x="390" y="250" as="sourcePoint" />
            <mxPoint x="440" y="200" as="targetPoint" />
          </mxGeometry>
        </mxCell>
        <mxCell id="MNyeOqqjsDTYBzTJqI73-14" value="Загрузить в регистр DS 40h" style="rounded=0;whiteSpace=wrap;html=1;" parent="1" vertex="1">
          <mxGeometry x="325.5" y="430" width="177" height="80" as="geometry" />
        </mxCell>
        <mxCell id="MNyeOqqjsDTYBzTJqI73-15" value="Загрузить в регистр ES 00h" style="rounded=0;whiteSpace=wrap;html=1;" parent="1" vertex="1">
          <mxGeometry x="325.5" y="531" width="177" height="80" as="geometry" />
        </mxCell>
        <mxCell id="MNyeOqqjsDTYBzTJqI73-16" value="" style="endArrow=none;html=1;rounded=0;entryX=0.5;entryY=0;entryDx=0;entryDy=0;exitX=0.5;exitY=1;exitDx=0;exitDy=0;" parent="1" source="MNyeOqqjsDTYBzTJqI73-2" target="MNyeOqqjsDTYBzTJqI73-14" edge="1">
          <mxGeometry width="50" height="50" relative="1" as="geometry">
            <mxPoint x="390" y="540" as="sourcePoint" />
            <mxPoint x="440" y="490" as="targetPoint" />
          </mxGeometry>
        </mxCell>
        <mxCell id="MNyeOqqjsDTYBzTJqI73-17" value="" style="endArrow=none;html=1;rounded=0;exitX=0.5;exitY=0;exitDx=0;exitDy=0;entryX=0.5;entryY=1;entryDx=0;entryDy=0;" parent="1" source="MNyeOqqjsDTYBzTJqI73-4" target="MNyeOqqjsDTYBzTJqI73-15" edge="1">
          <mxGeometry width="50" height="50" relative="1" as="geometry">
            <mxPoint x="390" y="540" as="sourcePoint" />
            <mxPoint x="440" y="490" as="targetPoint" />
          </mxGeometry>
        </mxCell>
        <mxCell id="MNyeOqqjsDTYBzTJqI73-18" value="" style="endArrow=none;html=1;rounded=0;exitX=0.5;exitY=0;exitDx=0;exitDy=0;entryX=0.5;entryY=1;entryDx=0;entryDy=0;" parent="1" source="MNyeOqqjsDTYBzTJqI73-15" target="MNyeOqqjsDTYBzTJqI73-14" edge="1">
          <mxGeometry width="50" height="50" relative="1" as="geometry">
            <mxPoint x="390" y="540" as="sourcePoint" />
            <mxPoint x="440" y="490" as="targetPoint" />
          </mxGeometry>
        </mxCell>
        <mxCell id="MNyeOqqjsDTYBzTJqI73-19" value="40h - адрес&lt;br&gt;области данных BIOS" style="strokeWidth=2;html=1;shape=mxgraph.flowchart.annotation_2;align=left;labelPosition=right;pointerEvents=1;" parent="1" vertex="1">
          <mxGeometry x="504" y="430" width="50" height="80" as="geometry" />
        </mxCell>
        <mxCell id="MNyeOqqjsDTYBzTJqI73-20" value="00h - адрес&lt;br&gt;таблицы векторов прерываний" style="strokeWidth=2;html=1;shape=mxgraph.flowchart.annotation_2;align=left;labelPosition=right;pointerEvents=1;" parent="1" vertex="1">
          <mxGeometry x="504" y="530" width="50" height="80" as="geometry" />
        </mxCell>
        <mxCell id="MNyeOqqjsDTYBzTJqI73-24" style="edgeStyle=orthogonalEdgeStyle;rounded=0;orthogonalLoop=1;jettySize=auto;html=1;exitX=0.5;exitY=0;exitDx=0;exitDy=0;endArrow=none;endFill=0;" parent="1" source="MNyeOqqjsDTYBzTJqI73-21" edge="1">
          <mxGeometry relative="1" as="geometry">
            <mxPoint x="415" y="970" as="targetPoint" />
          </mxGeometry>
        </mxCell>
        <mxCell id="MNyeOqqjsDTYBzTJqI73-21" value="A" style="ellipse;whiteSpace=wrap;html=1;aspect=fixed;" parent="1" vertex="1">
          <mxGeometry x="374.75" y="990" width="80" height="80" as="geometry" />
        </mxCell>
      </root>
    </mxGraphModel>
  </diagram>
  <diagram id="MLLetXSv6iG3_QIzw2Um" name="Страница 1">
    <mxGraphModel dx="941" dy="644" grid="1" gridSize="10" guides="1" tooltips="1" connect="1" arrows="1" fold="1" page="1" pageScale="1" pageWidth="30000" pageHeight="30000" math="0" shadow="0">
      <root>
        <mxCell id="0" />
        <mxCell id="1" parent="0" />
        <mxCell id="JQNa6V2483BZGhvwN-Cw-1" value="Начало" style="rounded=1;whiteSpace=wrap;html=1;direction=east;perimeter=rectanglePerimeter;arcSize=50;" parent="1" vertex="1">
          <mxGeometry x="324" y="150" width="180" height="60" as="geometry" />
        </mxCell>
        <mxCell id="JQNa6V2483BZGhvwN-Cw-2" value="Сохранить регистры&lt;div&gt;&amp;nbsp;&lt;span style=&quot;background-color: initial;&quot;&gt;ES,&amp;nbsp;&lt;/span&gt;&lt;span style=&quot;background-color: initial;&quot;&gt;DS,&amp;nbsp;&lt;/span&gt;&lt;span style=&quot;background-color: initial;&quot;&gt;AX, DX&lt;/span&gt;&lt;/div&gt;" style="rounded=0;whiteSpace=wrap;html=1;" parent="1" vertex="1">
          <mxGeometry x="325.5" y="330" width="177" height="80" as="geometry" />
        </mxCell>
        <mxCell id="JQNa6V2483BZGhvwN-Cw-3" value="Вызвать подпрограмму sub_1" style="shape=process;whiteSpace=wrap;html=1;backgroundOutline=1;" parent="1" vertex="1">
          <mxGeometry x="326.25" y="230" width="175.5" height="80" as="geometry" />
        </mxCell>
        <mxCell id="JQNa6V2483BZGhvwN-Cw-5" value="Инкремент младшего слова счетчика тиков по адресу DS:006Ch" style="rounded=0;whiteSpace=wrap;html=1;" parent="1" vertex="1">
          <mxGeometry x="325.5" y="643" width="177" height="80" as="geometry" />
        </mxCell>
        <mxCell id="JQNa6V2483BZGhvwN-Cw-7" value="&lt;span style=&quot;color: rgb(0, 0, 0); font-family: Helvetica; font-size: 12px; font-style: normal; font-variant-ligatures: normal; font-variant-caps: normal; font-weight: 400; letter-spacing: normal; orphans: 2; text-align: center; text-indent: 0px; text-transform: none; widows: 2; word-spacing: 0px; -webkit-text-stroke-width: 0px; background-color: rgb(248, 249, 250); text-decoration-thickness: initial; text-decoration-style: initial; text-decoration-color: initial; float: none; display: inline !important;&quot;&gt;&lt;span style=&quot;background-color: rgb(251, 251, 251);&quot;&gt;Младшее слово&amp;nbsp;&lt;/span&gt;&lt;/span&gt;&lt;div&gt;&lt;span style=&quot;color: rgb(0, 0, 0); font-family: Helvetica; font-size: 12px; font-style: normal; font-variant-ligatures: normal; font-variant-caps: normal; font-weight: 400; letter-spacing: normal; orphans: 2; text-align: center; text-indent: 0px; text-transform: none; widows: 2; word-spacing: 0px; -webkit-text-stroke-width: 0px; background-color: rgb(248, 249, 250); text-decoration-thickness: initial; text-decoration-style: initial; text-decoration-color: initial; float: none; display: inline !important;&quot;&gt;&lt;span style=&quot;background-color: rgb(251, 251, 251);&quot;&gt;счетчика тиков&amp;nbsp;&lt;/span&gt;&lt;/span&gt;&lt;/div&gt;&lt;div&gt;&lt;span style=&quot;color: rgb(0, 0, 0); font-family: Helvetica; font-size: 12px; font-style: normal; font-variant-ligatures: normal; font-variant-caps: normal; font-weight: 400; letter-spacing: normal; orphans: 2; text-align: center; text-indent: 0px; text-transform: none; widows: 2; word-spacing: 0px; -webkit-text-stroke-width: 0px; background-color: rgb(248, 249, 250); text-decoration-thickness: initial; text-decoration-style: initial; text-decoration-color: initial; float: none; display: inline !important;&quot;&gt;&lt;span style=&quot;background-color: rgb(251, 251, 251);&quot;&gt;по адресу&amp;nbsp;&lt;/span&gt;&lt;/span&gt;&lt;/div&gt;&lt;div&gt;&lt;span style=&quot;background-color: rgb(248, 249, 250);&quot;&gt;DS:006Ch&lt;/span&gt;&lt;span style=&quot;background-color: rgb(248, 249, 250);&quot;&gt;&amp;nbsp;= 0?&lt;/span&gt;&lt;/div&gt;" style="rhombus;whiteSpace=wrap;html=1;" parent="1" vertex="1">
          <mxGeometry x="326.25" y="750" width="177" height="110" as="geometry" />
        </mxCell>
        <mxCell id="JQNa6V2483BZGhvwN-Cw-8" value="Инкремент старшего слова счетчика тиков" style="rounded=0;whiteSpace=wrap;html=1;" parent="1" vertex="1">
          <mxGeometry x="554" y="850" width="177" height="80" as="geometry" />
        </mxCell>
        <mxCell id="LECHoYT2e6DPwTB3EW3i-1" value="" style="endArrow=none;html=1;rounded=0;exitX=1;exitY=0.5;exitDx=0;exitDy=0;entryX=0.486;entryY=-0.012;entryDx=0;entryDy=0;entryPerimeter=0;" parent="1" source="JQNa6V2483BZGhvwN-Cw-7" target="JQNa6V2483BZGhvwN-Cw-8" edge="1">
          <mxGeometry width="50" height="50" relative="1" as="geometry">
            <mxPoint x="530" y="780" as="sourcePoint" />
            <mxPoint x="660" y="870" as="targetPoint" />
            <Array as="points">
              <mxPoint x="639" y="805" />
            </Array>
          </mxGeometry>
        </mxCell>
        <mxCell id="LECHoYT2e6DPwTB3EW3i-2" value="" style="endArrow=none;html=1;rounded=0;exitX=0;exitY=0.5;exitDx=0;exitDy=0;" parent="1" source="JQNa6V2483BZGhvwN-Cw-7" edge="1">
          <mxGeometry width="50" height="50" relative="1" as="geometry">
            <mxPoint x="400" y="810" as="sourcePoint" />
            <mxPoint x="190" y="970" as="targetPoint" />
            <Array as="points">
              <mxPoint x="190" y="805" />
            </Array>
          </mxGeometry>
        </mxCell>
        <mxCell id="LECHoYT2e6DPwTB3EW3i-4" value="" style="endArrow=none;html=1;rounded=0;" parent="1" source="JQNa6V2483BZGhvwN-Cw-8" edge="1">
          <mxGeometry width="50" height="50" relative="1" as="geometry">
            <mxPoint x="640" y="980" as="sourcePoint" />
            <mxPoint x="190" y="970" as="targetPoint" />
            <Array as="points">
              <mxPoint x="640" y="970" />
            </Array>
          </mxGeometry>
        </mxCell>
        <mxCell id="LECHoYT2e6DPwTB3EW3i-5" value="" style="endArrow=none;html=1;rounded=0;exitX=0.5;exitY=0;exitDx=0;exitDy=0;" parent="1" source="P-n05Lf26PPhzIcZph0D-3" edge="1">
          <mxGeometry width="50" height="50" relative="1" as="geometry">
            <mxPoint x="414.0000000000002" y="1031" as="sourcePoint" />
            <mxPoint x="414" y="970" as="targetPoint" />
          </mxGeometry>
        </mxCell>
        <mxCell id="LECHoYT2e6DPwTB3EW3i-6" value="" style="endArrow=none;html=1;rounded=0;exitX=0.5;exitY=0;exitDx=0;exitDy=0;entryX=0.5;entryY=1;entryDx=0;entryDy=0;" parent="1" source="JQNa6V2483BZGhvwN-Cw-7" target="JQNa6V2483BZGhvwN-Cw-5" edge="1">
          <mxGeometry width="50" height="50" relative="1" as="geometry">
            <mxPoint x="500" y="610" as="sourcePoint" />
            <mxPoint x="550" y="560" as="targetPoint" />
          </mxGeometry>
        </mxCell>
        <mxCell id="LECHoYT2e6DPwTB3EW3i-8" value="&lt;font style=&quot;font-size: 18px;&quot;&gt;да&lt;/font&gt;" style="text;html=1;strokeColor=none;fillColor=none;align=center;verticalAlign=middle;whiteSpace=wrap;rounded=0;" parent="1" vertex="1">
          <mxGeometry x="530" y="770" width="60" height="30" as="geometry" />
        </mxCell>
        <mxCell id="LECHoYT2e6DPwTB3EW3i-10" value="" style="endArrow=none;html=1;rounded=0;fontSize=18;exitX=0.5;exitY=0;exitDx=0;exitDy=0;entryX=0.5;entryY=1;entryDx=0;entryDy=0;" parent="1" source="JQNa6V2483BZGhvwN-Cw-2" target="JQNa6V2483BZGhvwN-Cw-3" edge="1">
          <mxGeometry width="50" height="50" relative="1" as="geometry">
            <mxPoint x="410" y="410" as="sourcePoint" />
            <mxPoint x="460" y="360" as="targetPoint" />
          </mxGeometry>
        </mxCell>
        <mxCell id="LECHoYT2e6DPwTB3EW3i-11" value="" style="endArrow=none;html=1;rounded=0;fontSize=18;exitX=0.5;exitY=0;exitDx=0;exitDy=0;entryX=0.5;entryY=1;entryDx=0;entryDy=0;" parent="1" source="JQNa6V2483BZGhvwN-Cw-3" target="JQNa6V2483BZGhvwN-Cw-1" edge="1">
          <mxGeometry width="50" height="50" relative="1" as="geometry">
            <mxPoint x="390" y="250" as="sourcePoint" />
            <mxPoint x="440" y="200" as="targetPoint" />
          </mxGeometry>
        </mxCell>
        <mxCell id="bErLdbm3ugONDDCFhKQ8-1" value="Загрузить в регистр DS 40h" style="rounded=0;whiteSpace=wrap;html=1;" parent="1" vertex="1">
          <mxGeometry x="325.5" y="430" width="177" height="80" as="geometry" />
        </mxCell>
        <mxCell id="bErLdbm3ugONDDCFhKQ8-2" value="Загрузить в регистр ES 00h" style="rounded=0;whiteSpace=wrap;html=1;" parent="1" vertex="1">
          <mxGeometry x="325.5" y="531" width="177" height="80" as="geometry" />
        </mxCell>
        <mxCell id="bErLdbm3ugONDDCFhKQ8-3" value="" style="endArrow=none;html=1;rounded=0;entryX=0.5;entryY=0;entryDx=0;entryDy=0;exitX=0.5;exitY=1;exitDx=0;exitDy=0;" parent="1" source="JQNa6V2483BZGhvwN-Cw-2" target="bErLdbm3ugONDDCFhKQ8-1" edge="1">
          <mxGeometry width="50" height="50" relative="1" as="geometry">
            <mxPoint x="390" y="540" as="sourcePoint" />
            <mxPoint x="440" y="490" as="targetPoint" />
          </mxGeometry>
        </mxCell>
        <mxCell id="bErLdbm3ugONDDCFhKQ8-4" value="" style="endArrow=none;html=1;rounded=0;exitX=0.5;exitY=0;exitDx=0;exitDy=0;entryX=0.5;entryY=1;entryDx=0;entryDy=0;" parent="1" source="JQNa6V2483BZGhvwN-Cw-5" target="bErLdbm3ugONDDCFhKQ8-2" edge="1">
          <mxGeometry width="50" height="50" relative="1" as="geometry">
            <mxPoint x="390" y="540" as="sourcePoint" />
            <mxPoint x="440" y="490" as="targetPoint" />
          </mxGeometry>
        </mxCell>
        <mxCell id="bErLdbm3ugONDDCFhKQ8-5" value="" style="endArrow=none;html=1;rounded=0;exitX=0.5;exitY=0;exitDx=0;exitDy=0;entryX=0.5;entryY=1;entryDx=0;entryDy=0;" parent="1" source="bErLdbm3ugONDDCFhKQ8-2" target="bErLdbm3ugONDDCFhKQ8-1" edge="1">
          <mxGeometry width="50" height="50" relative="1" as="geometry">
            <mxPoint x="390" y="540" as="sourcePoint" />
            <mxPoint x="440" y="490" as="targetPoint" />
          </mxGeometry>
        </mxCell>
        <mxCell id="P-n05Lf26PPhzIcZph0D-3" value="&amp;nbsp;старшее&amp;nbsp;&lt;div&gt;слово&amp;nbsp;&lt;span style=&quot;background-color: initial;&quot;&gt;счетчика&amp;nbsp;&lt;/span&gt;&lt;/div&gt;&lt;div&gt;&lt;span style=&quot;background-color: initial;&quot;&gt;тиков ==&amp;nbsp;&lt;/span&gt;&lt;span style=&quot;background-color: initial;&quot;&gt;24?&lt;/span&gt;&lt;/div&gt;" style="rhombus;whiteSpace=wrap;html=1;" parent="1" vertex="1">
          <mxGeometry x="325.5" y="1010" width="177" height="110" as="geometry" />
        </mxCell>
        <mxCell id="P-n05Lf26PPhzIcZph0D-4" value="Обнулить счетчик тиков" style="rounded=0;whiteSpace=wrap;html=1;" parent="1" vertex="1">
          <mxGeometry x="744" y="1190" width="177" height="70" as="geometry" />
        </mxCell>
        <mxCell id="P-n05Lf26PPhzIcZph0D-5" value="Установить по адресу DS:0070h флаг прохождения суток" style="rounded=0;whiteSpace=wrap;html=1;" parent="1" vertex="1">
          <mxGeometry x="744" y="1290" width="177" height="90" as="geometry" />
        </mxCell>
        <mxCell id="P-n05Lf26PPhzIcZph0D-6" value="Декремент счетчка времени до отключения моторчика дисковода по адресу DS:0040h" style="rounded=0;whiteSpace=wrap;html=1;" parent="1" vertex="1">
          <mxGeometry x="321.25" y="1470" width="177" height="80" as="geometry" />
        </mxCell>
        <mxCell id="P-n05Lf26PPhzIcZph0D-7" value="Значение по адресу&lt;br&gt;DS:0040h = 0?" style="rhombus;whiteSpace=wrap;html=1;" parent="1" vertex="1">
          <mxGeometry x="321.25" y="1580" width="177" height="110" as="geometry" />
        </mxCell>
        <mxCell id="P-n05Lf26PPhzIcZph0D-8" value="Сбросить флаг работы моторчика дисковода" style="rounded=0;whiteSpace=wrap;html=1;" parent="1" vertex="1">
          <mxGeometry x="554" y="1680" width="177" height="90" as="geometry" />
        </mxCell>
        <mxCell id="P-n05Lf26PPhzIcZph0D-9" value="Отправить команду отключения моторчика дисковода 0Ch в порт дисковода 3F2h" style="rounded=0;whiteSpace=wrap;html=1;" parent="1" vertex="1">
          <mxGeometry x="554" y="1790" width="177" height="90" as="geometry" />
        </mxCell>
        <mxCell id="P-n05Lf26PPhzIcZph0D-11" value="младшее слово&lt;div&gt;&lt;span style=&quot;background-color: initial;&quot;&gt;счетчика тиков = B0h&lt;/span&gt;&lt;/div&gt;" style="rhombus;whiteSpace=wrap;html=1;" parent="1" vertex="1">
          <mxGeometry x="550" y="1090" width="177" height="110" as="geometry" />
        </mxCell>
        <mxCell id="P-n05Lf26PPhzIcZph0D-12" value="" style="endArrow=none;html=1;rounded=0;entryX=1;entryY=0.5;entryDx=0;entryDy=0;exitX=0.5;exitY=0;exitDx=0;exitDy=0;" parent="1" source="P-n05Lf26PPhzIcZph0D-11" target="P-n05Lf26PPhzIcZph0D-3" edge="1">
          <mxGeometry width="50" height="50" relative="1" as="geometry">
            <mxPoint x="450" y="1240" as="sourcePoint" />
            <mxPoint x="500" y="1190" as="targetPoint" />
            <Array as="points">
              <mxPoint x="639" y="1065" />
            </Array>
          </mxGeometry>
        </mxCell>
        <mxCell id="P-n05Lf26PPhzIcZph0D-13" value="" style="endArrow=none;html=1;rounded=0;entryX=1;entryY=0.5;entryDx=0;entryDy=0;" parent="1" target="P-n05Lf26PPhzIcZph0D-11" edge="1">
          <mxGeometry width="50" height="50" relative="1" as="geometry">
            <mxPoint x="834" y="1190" as="sourcePoint" />
            <mxPoint x="594" y="1220" as="targetPoint" />
            <Array as="points">
              <mxPoint x="834" y="1145" />
            </Array>
          </mxGeometry>
        </mxCell>
        <mxCell id="P-n05Lf26PPhzIcZph0D-14" value="" style="endArrow=none;html=1;rounded=0;exitX=0.5;exitY=1;exitDx=0;exitDy=0;" parent="1" source="P-n05Lf26PPhzIcZph0D-4" edge="1">
          <mxGeometry width="50" height="50" relative="1" as="geometry">
            <mxPoint x="834" y="1290" as="sourcePoint" />
            <mxPoint x="834" y="1290" as="targetPoint" />
          </mxGeometry>
        </mxCell>
        <mxCell id="P-n05Lf26PPhzIcZph0D-15" value="&lt;font style=&quot;font-size: 18px;&quot;&gt;да&lt;/font&gt;" style="text;html=1;strokeColor=none;fillColor=none;align=center;verticalAlign=middle;whiteSpace=wrap;rounded=0;" parent="1" vertex="1">
          <mxGeometry x="530" y="1030" width="60" height="30" as="geometry" />
        </mxCell>
        <mxCell id="P-n05Lf26PPhzIcZph0D-16" value="&lt;font style=&quot;font-size: 18px;&quot;&gt;да&lt;/font&gt;" style="text;html=1;strokeColor=none;fillColor=none;align=center;verticalAlign=middle;whiteSpace=wrap;rounded=0;" parent="1" vertex="1">
          <mxGeometry x="750" y="1110" width="60" height="30" as="geometry" />
        </mxCell>
        <mxCell id="P-n05Lf26PPhzIcZph0D-17" value="" style="endArrow=none;html=1;rounded=0;fontSize=18;exitX=0.5;exitY=1;exitDx=0;exitDy=0;" parent="1" source="P-n05Lf26PPhzIcZph0D-5" edge="1">
          <mxGeometry width="50" height="50" relative="1" as="geometry">
            <mxPoint x="834" y="1420" as="sourcePoint" />
            <mxPoint x="440" y="1410" as="targetPoint" />
            <Array as="points">
              <mxPoint x="834" y="1410" />
            </Array>
          </mxGeometry>
        </mxCell>
        <mxCell id="P-n05Lf26PPhzIcZph0D-18" value="" style="endArrow=none;html=1;rounded=0;fontSize=18;exitX=0;exitY=0.5;exitDx=0;exitDy=0;" parent="1" source="P-n05Lf26PPhzIcZph0D-3" edge="1">
          <mxGeometry width="50" height="50" relative="1" as="geometry">
            <mxPoint x="520" y="1370" as="sourcePoint" />
            <mxPoint x="190" y="1440" as="targetPoint" />
            <Array as="points">
              <mxPoint x="190" y="1065" />
            </Array>
          </mxGeometry>
        </mxCell>
        <mxCell id="P-n05Lf26PPhzIcZph0D-19" value="" style="endArrow=none;html=1;rounded=0;fontSize=18;" parent="1" edge="1">
          <mxGeometry width="50" height="50" relative="1" as="geometry">
            <mxPoint x="190" y="1440" as="sourcePoint" />
            <mxPoint x="640" y="1440" as="targetPoint" />
          </mxGeometry>
        </mxCell>
        <mxCell id="P-n05Lf26PPhzIcZph0D-20" value="" style="endArrow=none;html=1;rounded=0;fontSize=18;entryX=0;entryY=0.5;entryDx=0;entryDy=0;" parent="1" target="P-n05Lf26PPhzIcZph0D-11" edge="1">
          <mxGeometry width="50" height="50" relative="1" as="geometry">
            <mxPoint x="440" y="1410" as="sourcePoint" />
            <mxPoint x="554" y="1400" as="targetPoint" />
            <Array as="points">
              <mxPoint x="440" y="1145" />
            </Array>
          </mxGeometry>
        </mxCell>
        <mxCell id="P-n05Lf26PPhzIcZph0D-21" value="" style="endArrow=none;html=1;rounded=0;fontSize=18;exitX=0.5;exitY=0;exitDx=0;exitDy=0;" parent="1" source="P-n05Lf26PPhzIcZph0D-6" edge="1">
          <mxGeometry width="50" height="50" relative="1" as="geometry">
            <mxPoint x="540" y="1450" as="sourcePoint" />
            <mxPoint x="410" y="1440" as="targetPoint" />
          </mxGeometry>
        </mxCell>
        <mxCell id="P-n05Lf26PPhzIcZph0D-22" value="" style="endArrow=none;html=1;rounded=0;fontSize=18;exitX=0.5;exitY=0;exitDx=0;exitDy=0;entryX=0.5;entryY=1;entryDx=0;entryDy=0;" parent="1" source="P-n05Lf26PPhzIcZph0D-7" target="P-n05Lf26PPhzIcZph0D-6" edge="1">
          <mxGeometry width="50" height="50" relative="1" as="geometry">
            <mxPoint x="482.75" y="1570" as="sourcePoint" />
            <mxPoint x="532.75" y="1520" as="targetPoint" />
          </mxGeometry>
        </mxCell>
        <mxCell id="P-n05Lf26PPhzIcZph0D-23" value="" style="endArrow=none;html=1;rounded=0;fontSize=18;exitX=1;exitY=0.5;exitDx=0;exitDy=0;" parent="1" source="P-n05Lf26PPhzIcZph0D-7" edge="1">
          <mxGeometry width="50" height="50" relative="1" as="geometry">
            <mxPoint x="482.75" y="1570" as="sourcePoint" />
            <mxPoint x="640" y="1680" as="targetPoint" />
            <Array as="points">
              <mxPoint x="640" y="1635" />
            </Array>
          </mxGeometry>
        </mxCell>
        <mxCell id="P-n05Lf26PPhzIcZph0D-24" value="&lt;font style=&quot;font-size: 18px;&quot;&gt;д&lt;/font&gt;&lt;span style=&quot;font-size: 18px; background-color: initial;&quot;&gt;а&lt;/span&gt;" style="text;html=1;strokeColor=none;fillColor=none;align=center;verticalAlign=middle;whiteSpace=wrap;rounded=0;" parent="1" vertex="1">
          <mxGeometry x="530" y="1600" width="60" height="30" as="geometry" />
        </mxCell>
        <mxCell id="P-n05Lf26PPhzIcZph0D-25" value="" style="endArrow=none;html=1;rounded=0;fontSize=18;exitX=0.5;exitY=1;exitDx=0;exitDy=0;entryX=0.5;entryY=0;entryDx=0;entryDy=0;" parent="1" source="P-n05Lf26PPhzIcZph0D-8" target="P-n05Lf26PPhzIcZph0D-9" edge="1">
          <mxGeometry width="50" height="50" relative="1" as="geometry">
            <mxPoint x="532.75" y="1700" as="sourcePoint" />
            <mxPoint x="582.75" y="1650" as="targetPoint" />
          </mxGeometry>
        </mxCell>
        <mxCell id="P-n05Lf26PPhzIcZph0D-26" value="" style="endArrow=none;html=1;rounded=0;fontSize=18;exitX=0;exitY=0.5;exitDx=0;exitDy=0;" parent="1" source="P-n05Lf26PPhzIcZph0D-7" edge="1">
          <mxGeometry width="50" height="50" relative="1" as="geometry">
            <mxPoint x="382.75" y="1750" as="sourcePoint" />
            <mxPoint x="190" y="1910" as="targetPoint" />
            <Array as="points">
              <mxPoint x="190" y="1635" />
            </Array>
          </mxGeometry>
        </mxCell>
        <mxCell id="P-n05Lf26PPhzIcZph0D-28" value="" style="endArrow=none;html=1;rounded=0;fontSize=18;" parent="1" edge="1">
          <mxGeometry width="50" height="50" relative="1" as="geometry">
            <mxPoint x="640" y="1440" as="sourcePoint" />
            <mxPoint x="640" y="1410" as="targetPoint" />
          </mxGeometry>
        </mxCell>
        <mxCell id="P-n05Lf26PPhzIcZph0D-29" value="" style="endArrow=none;html=1;rounded=0;fontSize=18;" parent="1" edge="1">
          <mxGeometry width="50" height="50" relative="1" as="geometry">
            <mxPoint x="190" y="1910" as="sourcePoint" />
            <mxPoint x="640" y="1880" as="targetPoint" />
            <Array as="points">
              <mxPoint x="640" y="1910" />
            </Array>
          </mxGeometry>
        </mxCell>
        <mxCell id="P-n05Lf26PPhzIcZph0D-61" value="Установлен ли PF&lt;br&gt;по адресу DS:0314h?" style="rhombus;whiteSpace=wrap;html=1;" parent="1" vertex="1">
          <mxGeometry x="321.25" y="1930" width="177" height="121" as="geometry" />
        </mxCell>
        <mxCell id="P-n05Lf26PPhzIcZph0D-62" value="Вызвать прерывание 1Ch" style="shape=process;whiteSpace=wrap;html=1;backgroundOutline=1;" parent="1" vertex="1">
          <mxGeometry x="100" y="2060" width="177" height="90" as="geometry" />
        </mxCell>
        <mxCell id="P-n05Lf26PPhzIcZph0D-63" value="Вызвать подпрограмму sub_1" style="shape=process;whiteSpace=wrap;html=1;backgroundOutline=1;" parent="1" vertex="1">
          <mxGeometry x="319.25" y="2260" width="177" height="91" as="geometry" />
        </mxCell>
        <mxCell id="P-n05Lf26PPhzIcZph0D-64" value="Сбросить контроллер прерываний" style="rounded=0;whiteSpace=wrap;html=1;" parent="1" vertex="1">
          <mxGeometry x="327.75" y="2370" width="160" height="91" as="geometry" />
        </mxCell>
        <mxCell id="P-n05Lf26PPhzIcZph0D-65" value="Восстановить регистры&amp;nbsp; DX, AX, DS, ES" style="rounded=0;whiteSpace=wrap;html=1;" parent="1" vertex="1">
          <mxGeometry x="327.75" y="2480" width="160" height="91" as="geometry" />
        </mxCell>
        <mxCell id="P-n05Lf26PPhzIcZph0D-66" value="Конец" style="rounded=1;whiteSpace=wrap;html=1;direction=east;perimeter=rectanglePerimeter;arcSize=50;" parent="1" vertex="1">
          <mxGeometry x="317.75" y="2590" width="180" height="60" as="geometry" />
        </mxCell>
        <mxCell id="P-n05Lf26PPhzIcZph0D-67" value="" style="endArrow=none;html=1;rounded=0;entryX=0.5;entryY=0;entryDx=0;entryDy=0;" parent="1" target="P-n05Lf26PPhzIcZph0D-61" edge="1">
          <mxGeometry width="50" height="50" relative="1" as="geometry">
            <mxPoint x="410" y="1910" as="sourcePoint" />
            <mxPoint x="466.75" y="2100" as="targetPoint" />
            <Array as="points" />
          </mxGeometry>
        </mxCell>
        <mxCell id="P-n05Lf26PPhzIcZph0D-68" value="&lt;font style=&quot;font-size: 18px;&quot;&gt;да&lt;/font&gt;" style="text;html=1;strokeColor=none;fillColor=none;align=center;verticalAlign=middle;whiteSpace=wrap;rounded=0;" parent="1" vertex="1">
          <mxGeometry x="530" y="1950" width="60" height="30" as="geometry" />
        </mxCell>
        <mxCell id="P-n05Lf26PPhzIcZph0D-69" value="" style="endArrow=none;html=1;rounded=0;fontSize=18;exitX=0.5;exitY=0;exitDx=0;exitDy=0;entryX=0;entryY=0.5;entryDx=0;entryDy=0;" parent="1" source="P-n05Lf26PPhzIcZph0D-62" target="P-n05Lf26PPhzIcZph0D-61" edge="1">
          <mxGeometry width="50" height="50" relative="1" as="geometry">
            <mxPoint x="290" y="2080" as="sourcePoint" />
            <mxPoint x="340" y="2030" as="targetPoint" />
            <Array as="points">
              <mxPoint x="189" y="1991" />
            </Array>
          </mxGeometry>
        </mxCell>
        <mxCell id="P-n05Lf26PPhzIcZph0D-70" value="" style="endArrow=none;html=1;rounded=0;fontSize=18;exitX=0.5;exitY=1;exitDx=0;exitDy=0;" parent="1" source="P-n05Lf26PPhzIcZph0D-62" edge="1">
          <mxGeometry width="50" height="50" relative="1" as="geometry">
            <mxPoint x="380" y="2210" as="sourcePoint" />
            <mxPoint x="190" y="2230" as="targetPoint" />
          </mxGeometry>
        </mxCell>
        <mxCell id="P-n05Lf26PPhzIcZph0D-71" value="" style="endArrow=none;html=1;rounded=0;fontSize=18;" parent="1" edge="1">
          <mxGeometry width="50" height="50" relative="1" as="geometry">
            <mxPoint x="190" y="2230" as="sourcePoint" />
            <mxPoint x="640" y="2230" as="targetPoint" />
          </mxGeometry>
        </mxCell>
        <mxCell id="P-n05Lf26PPhzIcZph0D-72" value="" style="endArrow=none;html=1;rounded=0;fontSize=18;exitX=0.5;exitY=0;exitDx=0;exitDy=0;" parent="1" source="P-n05Lf26PPhzIcZph0D-63" edge="1">
          <mxGeometry width="50" height="50" relative="1" as="geometry">
            <mxPoint x="374.75" y="2190" as="sourcePoint" />
            <mxPoint x="407.75" y="2230" as="targetPoint" />
          </mxGeometry>
        </mxCell>
        <mxCell id="P-n05Lf26PPhzIcZph0D-73" value="" style="endArrow=none;html=1;rounded=0;fontSize=18;exitX=0.5;exitY=0;exitDx=0;exitDy=0;entryX=0.5;entryY=1;entryDx=0;entryDy=0;" parent="1" source="P-n05Lf26PPhzIcZph0D-64" target="P-n05Lf26PPhzIcZph0D-63" edge="1">
          <mxGeometry width="50" height="50" relative="1" as="geometry">
            <mxPoint x="374.75" y="2190" as="sourcePoint" />
            <mxPoint x="424.75" y="2140" as="targetPoint" />
          </mxGeometry>
        </mxCell>
        <mxCell id="P-n05Lf26PPhzIcZph0D-74" value="" style="endArrow=none;html=1;rounded=0;fontSize=18;exitX=0.5;exitY=0;exitDx=0;exitDy=0;entryX=0.5;entryY=1;entryDx=0;entryDy=0;" parent="1" source="P-n05Lf26PPhzIcZph0D-65" target="P-n05Lf26PPhzIcZph0D-64" edge="1">
          <mxGeometry width="50" height="50" relative="1" as="geometry">
            <mxPoint x="374.75" y="2330" as="sourcePoint" />
            <mxPoint x="424.75" y="2280" as="targetPoint" />
          </mxGeometry>
        </mxCell>
        <mxCell id="P-n05Lf26PPhzIcZph0D-75" value="" style="endArrow=none;html=1;rounded=0;fontSize=18;exitX=0.5;exitY=0;exitDx=0;exitDy=0;entryX=0.5;entryY=1;entryDx=0;entryDy=0;" parent="1" source="P-n05Lf26PPhzIcZph0D-66" target="P-n05Lf26PPhzIcZph0D-65" edge="1">
          <mxGeometry width="50" height="50" relative="1" as="geometry">
            <mxPoint x="374.75" y="2330" as="sourcePoint" />
            <mxPoint x="414.75" y="2660" as="targetPoint" />
          </mxGeometry>
        </mxCell>
        <mxCell id="P-n05Lf26PPhzIcZph0D-76" value="&lt;span style=&quot;color: rgb(0, 0, 0); font-family: Helvetica; font-size: 12px; font-style: normal; font-variant-ligatures: normal; font-variant-caps: normal; font-weight: 400; letter-spacing: normal; orphans: 2; text-align: center; text-indent: 0px; text-transform: none; widows: 2; word-spacing: 0px; -webkit-text-stroke-width: 0px; background-color: rgb(248, 249, 250); text-decoration-thickness: initial; text-decoration-style: initial; text-decoration-color: initial; float: none; display: inline !important;&quot;&gt;Косвенный вызов 1Ch&lt;/span&gt;" style="rounded=0;whiteSpace=wrap;html=1;fontSize=18;" parent="1" vertex="1">
          <mxGeometry x="554" y="2130" width="177" height="70" as="geometry" />
        </mxCell>
        <mxCell id="P-n05Lf26PPhzIcZph0D-77" value="&lt;span style=&quot;color: rgb(0, 0, 0); font-family: Helvetica; font-size: 12px; font-style: normal; font-variant-ligatures: normal; font-variant-caps: normal; font-weight: 400; letter-spacing: normal; orphans: 2; text-align: center; text-indent: 0px; text-transform: none; widows: 2; word-spacing: 0px; -webkit-text-stroke-width: 0px; background-color: rgb(248, 249, 250); text-decoration-thickness: initial; text-decoration-style: initial; text-decoration-color: initial; float: none; display: inline !important;&quot;&gt;Сохранить FLAGS&lt;/span&gt;" style="rounded=0;whiteSpace=wrap;html=1;fontSize=18;" parent="1" vertex="1">
          <mxGeometry x="554" y="2016" width="177" height="74" as="geometry" />
        </mxCell>
        <mxCell id="P-n05Lf26PPhzIcZph0D-78" value="" style="endArrow=none;html=1;rounded=0;entryX=1;entryY=0.5;entryDx=0;entryDy=0;exitX=0.486;exitY=0;exitDx=0;exitDy=0;exitPerimeter=0;" parent="1" source="P-n05Lf26PPhzIcZph0D-77" target="P-n05Lf26PPhzIcZph0D-61" edge="1">
          <mxGeometry width="50" height="50" relative="1" as="geometry">
            <mxPoint x="390" y="2100" as="sourcePoint" />
            <mxPoint x="440" y="2050" as="targetPoint" />
            <Array as="points">
              <mxPoint x="640" y="1991" />
            </Array>
          </mxGeometry>
        </mxCell>
        <mxCell id="P-n05Lf26PPhzIcZph0D-79" value="" style="endArrow=none;html=1;rounded=0;exitX=0.5;exitY=0;exitDx=0;exitDy=0;entryX=0.5;entryY=1;entryDx=0;entryDy=0;" parent="1" source="P-n05Lf26PPhzIcZph0D-76" target="P-n05Lf26PPhzIcZph0D-77" edge="1">
          <mxGeometry width="50" height="50" relative="1" as="geometry">
            <mxPoint x="390" y="2100" as="sourcePoint" />
            <mxPoint x="440" y="2050" as="targetPoint" />
          </mxGeometry>
        </mxCell>
        <mxCell id="P-n05Lf26PPhzIcZph0D-80" value="" style="endArrow=none;html=1;rounded=0;entryX=0.485;entryY=1.019;entryDx=0;entryDy=0;entryPerimeter=0;" parent="1" target="P-n05Lf26PPhzIcZph0D-76" edge="1">
          <mxGeometry width="50" height="50" relative="1" as="geometry">
            <mxPoint x="640" y="2230" as="sourcePoint" />
            <mxPoint x="640" y="2220" as="targetPoint" />
          </mxGeometry>
        </mxCell>
        <mxCell id="Uo94-3EhCohwi_sCG8tI-1" value="40h - адрес&lt;br&gt;области данных BIOS" style="strokeWidth=2;html=1;shape=mxgraph.flowchart.annotation_2;align=left;labelPosition=right;pointerEvents=1;" parent="1" vertex="1">
          <mxGeometry x="504" y="430" width="50" height="80" as="geometry" />
        </mxCell>
        <mxCell id="Uo94-3EhCohwi_sCG8tI-2" value="00h - адрес&lt;br&gt;таблицы векторов прерываний" style="strokeWidth=2;html=1;shape=mxgraph.flowchart.annotation_2;align=left;labelPosition=right;pointerEvents=1;" parent="1" vertex="1">
          <mxGeometry x="504" y="530" width="50" height="80" as="geometry" />
        </mxCell>
        <mxCell id="i83yNclt_2L6qOf7IM5q-4" value="Отправить в порт 20h&lt;br&gt;значение 20h - EOI" style="strokeWidth=2;html=1;shape=mxgraph.flowchart.annotation_2;align=left;labelPosition=right;pointerEvents=1;" parent="1" vertex="1">
          <mxGeometry x="487.75" y="2370" width="50" height="90" as="geometry" />
        </mxCell>
      </root>
    </mxGraphModel>
  </diagram>
  <diagram id="oVvf_CX5bYKwhZc-6DVJ" name="Страница — 2">
    <mxGraphModel dx="954" dy="657" grid="1" gridSize="10" guides="1" tooltips="1" connect="1" arrows="1" fold="1" page="1" pageScale="1" pageWidth="30000" pageHeight="30000" math="0" shadow="0">
      <root>
        <mxCell id="0" />
        <mxCell id="1" parent="0" />
        <mxCell id="hx4LTmjH6mWQDopKMHRq-23" value="Сохранить регистры&amp;nbsp;&lt;br&gt;&lt;div&gt;&lt;span style=&quot;background-color: initial;&quot;&gt;DS,&amp;nbsp;&lt;/span&gt;AX&lt;/div&gt;" style="rounded=0;whiteSpace=wrap;html=1;" parent="1" vertex="1">
          <mxGeometry x="312.5" y="220" width="177" height="80" as="geometry" />
        </mxCell>
        <mxCell id="hx4LTmjH6mWQDopKMHRq-24" value="Загрузить в регистр AH младший байт регистра FLAGS" style="rounded=0;whiteSpace=wrap;html=1;" parent="1" vertex="1">
          <mxGeometry x="312.5" y="430" width="177" height="80" as="geometry" />
        </mxCell>
        <mxCell id="hx4LTmjH6mWQDopKMHRq-25" value="Установлен ли&amp;nbsp;флаг &lt;br&gt;DF или старший бит IOPL&lt;br&gt;&amp;nbsp;по адресу DS:0314h?" style="rhombus;whiteSpace=wrap;html=1;" parent="1" vertex="1">
          <mxGeometry x="312.5" y="530" width="177" height="120" as="geometry" />
        </mxCell>
        <mxCell id="hx4LTmjH6mWQDopKMHRq-26" value="Запрерить прерывания" style="rounded=0;whiteSpace=wrap;html=1;" parent="1" vertex="1">
          <mxGeometry x="80" y="620" width="177" height="80" as="geometry" />
        </mxCell>
        <mxCell id="hx4LTmjH6mWQDopKMHRq-27" value="Сбросить флаг IF по адресу DS:0314h" style="rounded=0;whiteSpace=wrap;html=1;" parent="1" vertex="1">
          <mxGeometry x="540" y="620" width="177" height="80" as="geometry" />
        </mxCell>
        <mxCell id="hx4LTmjH6mWQDopKMHRq-28" value="Загрузить регистр AH в младший байт регистра FLAGS" style="rounded=0;whiteSpace=wrap;html=1;" parent="1" vertex="1">
          <mxGeometry x="312.505" y="750" width="177" height="80" as="geometry" />
        </mxCell>
        <mxCell id="hx4LTmjH6mWQDopKMHRq-29" value="Восстановить регистры&amp;nbsp;&lt;div&gt;AX, DS&lt;/div&gt;" style="rounded=0;whiteSpace=wrap;html=1;" parent="1" vertex="1">
          <mxGeometry x="312.51" y="850" width="177" height="80" as="geometry" />
        </mxCell>
        <mxCell id="hx4LTmjH6mWQDopKMHRq-30" value="Начало" style="rounded=1;whiteSpace=wrap;html=1;direction=east;perimeter=rectanglePerimeter;arcSize=50;" parent="1" vertex="1">
          <mxGeometry x="312.5" y="140" width="177" height="60" as="geometry" />
        </mxCell>
        <mxCell id="hx4LTmjH6mWQDopKMHRq-31" value="Конец" style="rounded=1;whiteSpace=wrap;html=1;direction=east;perimeter=rectanglePerimeter;arcSize=50;" parent="1" vertex="1">
          <mxGeometry x="312.5" y="950" width="177" height="60" as="geometry" />
        </mxCell>
        <mxCell id="hx4LTmjH6mWQDopKMHRq-32" value="" style="endArrow=none;html=1;rounded=0;exitX=0.5;exitY=0;exitDx=0;exitDy=0;entryX=0.5;entryY=1;entryDx=0;entryDy=0;" parent="1" source="hx4LTmjH6mWQDopKMHRq-23" target="hx4LTmjH6mWQDopKMHRq-30" edge="1">
          <mxGeometry width="50" height="50" relative="1" as="geometry">
            <mxPoint x="510" y="531" as="sourcePoint" />
            <mxPoint x="400" y="200" as="targetPoint" />
          </mxGeometry>
        </mxCell>
        <mxCell id="hx4LTmjH6mWQDopKMHRq-33" value="" style="endArrow=none;html=1;rounded=0;exitX=0.5;exitY=1;exitDx=0;exitDy=0;entryX=0.5;entryY=0;entryDx=0;entryDy=0;" parent="1" source="hx4LTmjH6mWQDopKMHRq-24" target="hx4LTmjH6mWQDopKMHRq-25" edge="1">
          <mxGeometry width="50" height="50" relative="1" as="geometry">
            <mxPoint x="510" y="564" as="sourcePoint" />
            <mxPoint x="560" y="514" as="targetPoint" />
          </mxGeometry>
        </mxCell>
        <mxCell id="hx4LTmjH6mWQDopKMHRq-34" value="&lt;font style=&quot;font-size: 18px;&quot;&gt;да&lt;/font&gt;" style="text;html=1;strokeColor=none;fillColor=none;align=center;verticalAlign=middle;whiteSpace=wrap;rounded=0;" parent="1" vertex="1">
          <mxGeometry x="520" y="563" width="60" height="30" as="geometry" />
        </mxCell>
        <mxCell id="hx4LTmjH6mWQDopKMHRq-35" value="" style="endArrow=none;html=1;rounded=0;exitX=0.5;exitY=1;exitDx=0;exitDy=0;" parent="1" source="hx4LTmjH6mWQDopKMHRq-26" edge="1">
          <mxGeometry width="50" height="50" relative="1" as="geometry">
            <mxPoint x="360" y="783" as="sourcePoint" />
            <mxPoint x="169" y="730" as="targetPoint" />
          </mxGeometry>
        </mxCell>
        <mxCell id="hx4LTmjH6mWQDopKMHRq-36" value="" style="endArrow=none;html=1;rounded=0;exitX=0.5;exitY=1;exitDx=0;exitDy=0;" parent="1" source="hx4LTmjH6mWQDopKMHRq-27" edge="1">
          <mxGeometry width="50" height="50" relative="1" as="geometry">
            <mxPoint x="680" y="800" as="sourcePoint" />
            <mxPoint x="629" y="730" as="targetPoint" />
          </mxGeometry>
        </mxCell>
        <mxCell id="hx4LTmjH6mWQDopKMHRq-37" value="" style="endArrow=none;html=1;rounded=0;" parent="1" edge="1">
          <mxGeometry width="50" height="50" relative="1" as="geometry">
            <mxPoint x="170" y="730" as="sourcePoint" />
            <mxPoint x="630" y="730" as="targetPoint" />
          </mxGeometry>
        </mxCell>
        <mxCell id="hx4LTmjH6mWQDopKMHRq-38" value="" style="endArrow=none;html=1;rounded=0;exitX=0.5;exitY=0;exitDx=0;exitDy=0;" parent="1" source="hx4LTmjH6mWQDopKMHRq-28" edge="1">
          <mxGeometry width="50" height="50" relative="1" as="geometry">
            <mxPoint x="431" y="861" as="sourcePoint" />
            <mxPoint x="401" y="730" as="targetPoint" />
          </mxGeometry>
        </mxCell>
        <mxCell id="hx4LTmjH6mWQDopKMHRq-39" value="" style="endArrow=none;html=1;rounded=0;exitX=0.5;exitY=1;exitDx=0;exitDy=0;entryX=0.5;entryY=0;entryDx=0;entryDy=0;" parent="1" source="hx4LTmjH6mWQDopKMHRq-28" target="hx4LTmjH6mWQDopKMHRq-29" edge="1">
          <mxGeometry width="50" height="50" relative="1" as="geometry">
            <mxPoint x="411" y="801" as="sourcePoint" />
            <mxPoint x="461" y="751" as="targetPoint" />
          </mxGeometry>
        </mxCell>
        <mxCell id="hx4LTmjH6mWQDopKMHRq-40" value="" style="endArrow=none;html=1;rounded=0;exitX=0.5;exitY=1;exitDx=0;exitDy=0;entryX=0.5;entryY=0;entryDx=0;entryDy=0;" parent="1" source="hx4LTmjH6mWQDopKMHRq-29" target="hx4LTmjH6mWQDopKMHRq-31" edge="1">
          <mxGeometry width="50" height="50" relative="1" as="geometry">
            <mxPoint x="411" y="891" as="sourcePoint" />
            <mxPoint x="461" y="841" as="targetPoint" />
          </mxGeometry>
        </mxCell>
        <mxCell id="hx4LTmjH6mWQDopKMHRq-41" value="" style="endArrow=none;html=1;rounded=0;entryX=0;entryY=0.5;entryDx=0;entryDy=0;exitX=0.5;exitY=0;exitDx=0;exitDy=0;" parent="1" source="hx4LTmjH6mWQDopKMHRq-26" target="hx4LTmjH6mWQDopKMHRq-25" edge="1">
          <mxGeometry width="50" height="50" relative="1" as="geometry">
            <mxPoint x="270" y="803" as="sourcePoint" />
            <mxPoint x="320" y="753" as="targetPoint" />
            <Array as="points">
              <mxPoint x="169" y="590" />
            </Array>
          </mxGeometry>
        </mxCell>
        <mxCell id="hx4LTmjH6mWQDopKMHRq-42" value="" style="endArrow=none;html=1;rounded=0;exitX=1;exitY=0.5;exitDx=0;exitDy=0;entryX=0.511;entryY=0.011;entryDx=0;entryDy=0;entryPerimeter=0;" parent="1" source="hx4LTmjH6mWQDopKMHRq-25" target="hx4LTmjH6mWQDopKMHRq-27" edge="1">
          <mxGeometry width="50" height="50" relative="1" as="geometry">
            <mxPoint x="660" y="833" as="sourcePoint" />
            <mxPoint x="710" y="783" as="targetPoint" />
            <Array as="points">
              <mxPoint x="630" y="590" />
            </Array>
          </mxGeometry>
        </mxCell>
        <mxCell id="hx4LTmjH6mWQDopKMHRq-43" value="Загрузить в DS 40h" style="rounded=0;whiteSpace=wrap;html=1;" parent="1" vertex="1">
          <mxGeometry x="312.5" y="320" width="177" height="80" as="geometry" />
        </mxCell>
        <mxCell id="hx4LTmjH6mWQDopKMHRq-44" value="" style="endArrow=none;html=1;rounded=0;exitX=0.5;exitY=0;exitDx=0;exitDy=0;entryX=0.5;entryY=1;entryDx=0;entryDy=0;" parent="1" source="hx4LTmjH6mWQDopKMHRq-24" target="hx4LTmjH6mWQDopKMHRq-43" edge="1">
          <mxGeometry width="50" height="50" relative="1" as="geometry">
            <mxPoint x="420" y="460" as="sourcePoint" />
            <mxPoint x="470" y="410" as="targetPoint" />
          </mxGeometry>
        </mxCell>
        <mxCell id="hx4LTmjH6mWQDopKMHRq-45" value="" style="endArrow=none;html=1;rounded=0;entryX=0.5;entryY=0;entryDx=0;entryDy=0;exitX=0.5;exitY=1;exitDx=0;exitDy=0;" parent="1" source="hx4LTmjH6mWQDopKMHRq-23" target="hx4LTmjH6mWQDopKMHRq-43" edge="1">
          <mxGeometry width="50" height="50" relative="1" as="geometry">
            <mxPoint x="420" y="500" as="sourcePoint" />
            <mxPoint x="470" y="450" as="targetPoint" />
          </mxGeometry>
        </mxCell>
        <mxCell id="rvJj5Lz9USOJrkVe7R3q-1" value="40h - адрес&lt;br&gt;области данных BIOS" style="strokeWidth=2;html=1;shape=mxgraph.flowchart.annotation_2;align=left;labelPosition=right;pointerEvents=1;" parent="1" vertex="1">
          <mxGeometry x="490" y="320" width="50" height="80" as="geometry" />
        </mxCell>
      </root>
    </mxGraphModel>
  </diagram>
</mxfile>
